<mxfile host="Electron" agent="Mozilla/5.0 (Macintosh; Intel Mac OS X 10_15_7) AppleWebKit/537.36 (KHTML, like Gecko) draw.io/24.7.17 Chrome/128.0.6613.36 Electron/32.0.1 Safari/537.36" version="24.7.17">
  <diagram id="GUxEJdWFkQ5Y1Z3yI3_n" name="dex_agg_chain">
    <mxGraphModel dx="554" dy="496" grid="1" gridSize="10" guides="1" tooltips="1" connect="1" arrows="1" fold="1" page="1" pageScale="1" pageWidth="100" pageHeight="150" math="1" shadow="0">
      <root>
        <mxCell id="0" />
        <mxCell id="1" parent="0" />
        <mxCell id="2pf4LdB47JyuiCXh3u_--2" value="" style="rounded=0;whiteSpace=wrap;html=1;fillColor=#fad7ac;strokeColor=none;fillOpacity=60;" parent="1" vertex="1">
          <mxGeometry x="-100" y="80" width="200" height="80" as="geometry" />
        </mxCell>
        <mxCell id="2pf4LdB47JyuiCXh3u_--1" value="" style="rounded=0;whiteSpace=wrap;html=1;fillColor=#dae8fc;strokeColor=none;flipH=1;fillOpacity=60;" parent="1" vertex="1">
          <mxGeometry x="-100" y="-10" width="200" height="80" as="geometry" />
        </mxCell>
        <mxCell id="bZvmhqit_LieYHjqC5bX-45" style="edgeStyle=orthogonalEdgeStyle;rounded=1;orthogonalLoop=1;jettySize=auto;html=1;exitX=0.5;exitY=0;exitDx=0;exitDy=0;entryX=0.5;entryY=0;entryDx=0;entryDy=0;entryPerimeter=0;endArrow=classicThin;endFill=1;arcSize=5;fillColor=#d80073;strokeColor=#000000;startArrow=oval;startFill=1;" parent="1" source="nBqxjyZSAqmiugvEhESZ-1" target="bZvmhqit_LieYHjqC5bX-1" edge="1">
          <mxGeometry relative="1" as="geometry" />
        </mxCell>
        <mxCell id="bZvmhqit_LieYHjqC5bX-63" style="edgeStyle=orthogonalEdgeStyle;rounded=1;orthogonalLoop=1;jettySize=auto;html=1;exitX=1;exitY=0.75;exitDx=0;exitDy=0;entryX=0;entryY=0;entryDx=0;entryDy=7.5;entryPerimeter=0;strokeColor=#000000;endArrow=classicThin;endFill=1;arcSize=5;fillColor=#d80073;startArrow=oval;startFill=1;" parent="1" source="nBqxjyZSAqmiugvEhESZ-1" target="6Lm5Y_GZ7VoUYkAefaGX-1" edge="1">
          <mxGeometry relative="1" as="geometry" />
        </mxCell>
        <mxCell id="nBqxjyZSAqmiugvEhESZ-1" value="&lt;font style=&quot;font-size: 10px;&quot;&gt;&lt;br&gt;&lt;font style=&quot;font-size: 10px;&quot;&gt;&lt;br&gt;User&lt;/font&gt;&lt;/font&gt;" style="shape=actor;whiteSpace=wrap;html=1;fontSize=10;fontFamily=Times New Roman;verticalAlign=middle;" parent="1" vertex="1">
          <mxGeometry x="-90" y="48.75" width="40" height="51.25" as="geometry" />
        </mxCell>
        <mxCell id="bZvmhqit_LieYHjqC5bX-64" style="edgeStyle=orthogonalEdgeStyle;rounded=1;orthogonalLoop=1;jettySize=auto;html=1;exitX=0.5;exitY=1;exitDx=0;exitDy=0;exitPerimeter=0;entryX=0.5;entryY=1;entryDx=0;entryDy=0;strokeColor=#000000;endArrow=classicThin;endFill=1;arcSize=5;fillColor=#008a00;startArrow=oval;startFill=1;" parent="1" source="6Lm5Y_GZ7VoUYkAefaGX-1" target="nBqxjyZSAqmiugvEhESZ-1" edge="1">
          <mxGeometry relative="1" as="geometry" />
        </mxCell>
        <mxCell id="6Lm5Y_GZ7VoUYkAefaGX-1" value="MakerDAO&lt;br&gt;Vault" style="shape=cylinder3;whiteSpace=wrap;html=1;boundedLbl=1;backgroundOutline=1;size=7.5;strokeWidth=2;fontFamily=Times New Roman;fontSize=10;fontStyle=0" parent="1" vertex="1">
          <mxGeometry x="30" y="80.37" width="60" height="40" as="geometry" />
        </mxCell>
        <mxCell id="bZvmhqit_LieYHjqC5bX-62" style="edgeStyle=orthogonalEdgeStyle;rounded=1;orthogonalLoop=1;jettySize=auto;html=1;exitX=0;exitY=1;exitDx=0;exitDy=-7.5;exitPerimeter=0;entryX=0.75;entryY=0.25;entryDx=0;entryDy=0;entryPerimeter=0;strokeColor=#000000;endArrow=classicThin;endFill=1;arcSize=5;fillColor=#1ba1e2;startArrow=oval;startFill=1;" parent="1" source="bZvmhqit_LieYHjqC5bX-1" target="nBqxjyZSAqmiugvEhESZ-1" edge="1">
          <mxGeometry relative="1" as="geometry" />
        </mxCell>
        <mxCell id="bZvmhqit_LieYHjqC5bX-1" value="Lido&lt;br&gt;Pool" style="shape=cylinder3;whiteSpace=wrap;html=1;boundedLbl=1;backgroundOutline=1;size=7.5;strokeWidth=2;fontFamily=Times New Roman;fontStyle=0;fontSize=10;" parent="1" vertex="1">
          <mxGeometry x="30" y="30" width="60" height="39" as="geometry" />
        </mxCell>
        <mxCell id="pSTLvtJ6N-k_h_3kzANq-1" value="&lt;b style=&quot;font-size: 10px;&quot;&gt;DAI&lt;/b&gt;" style="ellipse;whiteSpace=wrap;html=1;aspect=fixed;labelBackgroundColor=none;labelBorderColor=none;fillColor=#eeeeee;strokeColor=#36393d;fontSize=10;fontFamily=Times New Roman;" parent="1" vertex="1">
          <mxGeometry x="-32" y="110" width="40" height="40" as="geometry" />
        </mxCell>
        <mxCell id="2SqFd5uKFIkBH42q-k37-2" style="edgeStyle=orthogonalEdgeStyle;rounded=0;orthogonalLoop=1;jettySize=auto;html=1;exitX=0.5;exitY=1;exitDx=0;exitDy=0;entryX=0.5;entryY=0;entryDx=0;entryDy=0;dashed=1;endArrow=none;endFill=0;" parent="1" source="EHTDADabwSFeFDYLKWJk-1" target="VNqc0J1lcE_MyhKkxBeR-1" edge="1">
          <mxGeometry relative="1" as="geometry" />
        </mxCell>
        <mxCell id="EHTDADabwSFeFDYLKWJk-1" value="&lt;b style=&quot;font-size: 10px;&quot;&gt;stETH&lt;/b&gt;" style="ellipse;whiteSpace=wrap;html=1;aspect=fixed;labelBackgroundColor=none;labelBorderColor=none;fillColor=#eeeeee;strokeColor=#36393d;fontSize=10;fontFamily=Times New Roman;" parent="1" vertex="1">
          <mxGeometry x="-32" width="40" height="40" as="geometry" />
        </mxCell>
        <mxCell id="2SqFd5uKFIkBH42q-k37-8" style="edgeStyle=orthogonalEdgeStyle;rounded=0;orthogonalLoop=1;jettySize=auto;html=1;exitX=0.5;exitY=1;exitDx=0;exitDy=0;entryX=0.5;entryY=0;entryDx=0;entryDy=0;endArrow=none;endFill=0;dashed=1;" parent="1" source="VNqc0J1lcE_MyhKkxBeR-1" target="pSTLvtJ6N-k_h_3kzANq-1" edge="1">
          <mxGeometry relative="1" as="geometry" />
        </mxCell>
        <mxCell id="VNqc0J1lcE_MyhKkxBeR-1" value="&lt;b&gt;wstETH&lt;/b&gt;" style="ellipse;whiteSpace=wrap;html=1;aspect=fixed;labelBackgroundColor=none;labelBorderColor=none;fillColor=#eeeeee;strokeColor=#36393d;fontSize=10;fontFamily=Times New Roman;" parent="1" vertex="1">
          <mxGeometry x="-32" y="54.379999999999995" width="40" height="40" as="geometry" />
        </mxCell>
        <mxCell id="puCPBz8C2vMCooEPcNfL-1" value="&lt;b style=&quot;font-size: 8px;&quot;&gt;Lido&lt;br style=&quot;font-size: 8px;&quot;&gt;&lt;/b&gt;" style="text;html=1;strokeColor=none;fillColor=none;align=center;verticalAlign=middle;whiteSpace=wrap;rounded=0;fontSize=8;spacing=2;" parent="1" vertex="1">
          <mxGeometry x="-99" y="-9" width="20" height="7" as="geometry" />
        </mxCell>
        <mxCell id="puCPBz8C2vMCooEPcNfL-2" value="&lt;b style=&quot;font-size: 8px;&quot;&gt;MakerDAO&lt;br style=&quot;font-size: 8px;&quot;&gt;&lt;/b&gt;" style="text;html=1;strokeColor=none;fillColor=none;align=center;verticalAlign=middle;whiteSpace=wrap;rounded=0;fontSize=8;spacing=2;" parent="1" vertex="1">
          <mxGeometry x="-99" y="156" width="40" as="geometry" />
        </mxCell>
        <mxCell id="fO8XjicVepQpFwOURcZq-1" value="&lt;p style=&quot;line-height: 270%;&quot;&gt;&lt;font style=&quot;font-size: 10px;&quot;&gt;1&lt;/font&gt;&lt;/p&gt;" style="ellipse;whiteSpace=wrap;html=1;aspect=fixed;fontSize=7;labelBackgroundColor=none;fontColor=#FFFFFF;fillColor=#000000;align=center;" parent="1" vertex="1">
          <mxGeometry x="-77" y="3" width="15" height="15" as="geometry" />
        </mxCell>
        <mxCell id="RdaBvsC2hKdaxSrO-m0y-2" value="&lt;p style=&quot;line-height: 270%;&quot;&gt;&lt;font style=&quot;font-size: 10px;&quot;&gt;1&lt;/font&gt;&lt;/p&gt;" style="ellipse;whiteSpace=wrap;html=1;aspect=fixed;fontSize=7;labelBackgroundColor=none;fontColor=#FFFFFF;fillColor=#000000;align=center;" parent="1" vertex="1">
          <mxGeometry x="52" y="3" width="15" height="15" as="geometry" />
        </mxCell>
        <mxCell id="RdaBvsC2hKdaxSrO-m0y-3" value="&lt;p style=&quot;line-height: 270%;&quot;&gt;&lt;font style=&quot;font-size: 10px;&quot;&gt;2&lt;/font&gt;&lt;/p&gt;" style="ellipse;whiteSpace=wrap;html=1;aspect=fixed;fontSize=7;labelBackgroundColor=none;fontColor=#FFFFFF;fillColor=#000000;align=center;" parent="1" vertex="1">
          <mxGeometry x="-45.5" y="53.879999999999995" width="15" height="15" as="geometry" />
        </mxCell>
        <mxCell id="RdaBvsC2hKdaxSrO-m0y-4" value="&lt;p style=&quot;line-height: 270%;&quot;&gt;&lt;font style=&quot;font-size: 10px;&quot;&gt;2&lt;/font&gt;&lt;/p&gt;" style="ellipse;whiteSpace=wrap;html=1;aspect=fixed;fontSize=7;labelBackgroundColor=none;fontColor=#FFFFFF;fillColor=#000000;align=center;" parent="1" vertex="1">
          <mxGeometry x="6" y="53.74999999999999" width="15" height="15" as="geometry" />
        </mxCell>
        <mxCell id="RdaBvsC2hKdaxSrO-m0y-5" value="&lt;p style=&quot;line-height: 270%;&quot;&gt;&lt;font style=&quot;font-size: 10px;&quot;&gt;3&lt;/font&gt;&lt;/p&gt;" style="ellipse;whiteSpace=wrap;html=1;aspect=fixed;fontSize=7;labelBackgroundColor=none;fontColor=#FFFFFF;fillColor=#000000;align=center;" parent="1" vertex="1">
          <mxGeometry x="-45.5" y="80" width="15" height="15" as="geometry" />
        </mxCell>
        <mxCell id="RdaBvsC2hKdaxSrO-m0y-6" value="&lt;p style=&quot;line-height: 270%;&quot;&gt;&lt;font style=&quot;font-size: 10px;&quot;&gt;3&lt;/font&gt;&lt;/p&gt;" style="ellipse;whiteSpace=wrap;html=1;aspect=fixed;fontSize=7;labelBackgroundColor=none;fontColor=#FFFFFF;fillColor=#000000;align=center;" parent="1" vertex="1">
          <mxGeometry x="6" y="80" width="15" height="15" as="geometry" />
        </mxCell>
        <mxCell id="RdaBvsC2hKdaxSrO-m0y-7" value="&lt;p style=&quot;line-height: 270%;&quot;&gt;&lt;font style=&quot;font-size: 10px;&quot;&gt;4&lt;/font&gt;&lt;/p&gt;" style="ellipse;whiteSpace=wrap;html=1;aspect=fixed;fontSize=7;labelBackgroundColor=none;fontColor=#FFFFFF;fillColor=#000000;align=center;" parent="1" vertex="1">
          <mxGeometry x="-77" y="131.5" width="15" height="15" as="geometry" />
        </mxCell>
        <mxCell id="RdaBvsC2hKdaxSrO-m0y-10" value="&lt;p style=&quot;line-height: 270%;&quot;&gt;&lt;font style=&quot;font-size: 10px;&quot;&gt;4&lt;/font&gt;&lt;/p&gt;" style="ellipse;whiteSpace=wrap;html=1;aspect=fixed;fontSize=7;labelBackgroundColor=none;fontColor=#FFFFFF;fillColor=#000000;align=center;" parent="1" vertex="1">
          <mxGeometry x="52" y="131.5" width="15" height="15" as="geometry" />
        </mxCell>
      </root>
    </mxGraphModel>
  </diagram>
</mxfile>
